<mxfile host="app.diagrams.net" agent="Mozilla/5.0 (Windows NT 10.0; Win64; x64) AppleWebKit/537.36 (KHTML, like Gecko) Chrome/135.0.0.0 Safari/537.36" version="26.2.14">
  <diagram name="Page-1" id="lDjxYm0ZW8-as53_CnIp">
    <mxGraphModel dx="1307" dy="507" grid="1" gridSize="10" guides="1" tooltips="1" connect="1" arrows="1" fold="1" page="1" pageScale="1" pageWidth="850" pageHeight="1100" math="0" shadow="0">
      <root>
        <mxCell id="0" />
        <mxCell id="1" parent="0" />
        <mxCell id="6woVvPPupNbpwFlzKSAC-3" value="Multiprocesor" style="text;html=1;align=center;verticalAlign=middle;whiteSpace=wrap;rounded=0;shadow=1;" vertex="1" parent="1">
          <mxGeometry x="160" y="40" width="60" height="30" as="geometry" />
        </mxCell>
        <mxCell id="6woVvPPupNbpwFlzKSAC-20" value="" style="edgeStyle=orthogonalEdgeStyle;rounded=0;orthogonalLoop=1;jettySize=auto;html=1;" edge="1" parent="1" source="6woVvPPupNbpwFlzKSAC-8" target="6woVvPPupNbpwFlzKSAC-10">
          <mxGeometry relative="1" as="geometry" />
        </mxCell>
        <mxCell id="6woVvPPupNbpwFlzKSAC-8" value="" style="shape=image;verticalLabelPosition=bottom;labelBackgroundColor=default;verticalAlign=top;aspect=fixed;imageAspect=0;image=https://cdn-icons-png.flaticon.com/128/543/543234.png;" vertex="1" parent="1">
          <mxGeometry x="160" y="100" width="60" height="60" as="geometry" />
        </mxCell>
        <mxCell id="6woVvPPupNbpwFlzKSAC-9" value="" style="shape=image;verticalLabelPosition=bottom;labelBackgroundColor=default;verticalAlign=top;aspect=fixed;imageAspect=0;image=https://cdn-icons-png.flaticon.com/128/17339/17339048.png;" vertex="1" parent="1">
          <mxGeometry x="40" y="200" width="60" height="60" as="geometry" />
        </mxCell>
        <mxCell id="6woVvPPupNbpwFlzKSAC-25" value="" style="edgeStyle=orthogonalEdgeStyle;rounded=0;orthogonalLoop=1;jettySize=auto;html=1;" edge="1" parent="1" source="6woVvPPupNbpwFlzKSAC-49" target="6woVvPPupNbpwFlzKSAC-12">
          <mxGeometry relative="1" as="geometry" />
        </mxCell>
        <mxCell id="6woVvPPupNbpwFlzKSAC-10" value="" style="shape=image;verticalLabelPosition=bottom;labelBackgroundColor=default;verticalAlign=top;aspect=fixed;imageAspect=0;image=https://cdn-icons-png.flaticon.com/128/17339/17339048.png;" vertex="1" parent="1">
          <mxGeometry x="160" y="200" width="60" height="60" as="geometry" />
        </mxCell>
        <mxCell id="6woVvPPupNbpwFlzKSAC-11" value="" style="shape=image;verticalLabelPosition=bottom;labelBackgroundColor=default;verticalAlign=top;aspect=fixed;imageAspect=0;image=https://cdn-icons-png.flaticon.com/128/17339/17339048.png;" vertex="1" parent="1">
          <mxGeometry x="280" y="200" width="60" height="60" as="geometry" />
        </mxCell>
        <mxCell id="6woVvPPupNbpwFlzKSAC-12" value="" style="shape=image;verticalLabelPosition=bottom;labelBackgroundColor=default;verticalAlign=top;aspect=fixed;imageAspect=0;image=https://cdn-icons-png.flaticon.com/128/9213/9213518.png;" vertex="1" parent="1">
          <mxGeometry x="145" y="300" width="90" height="90" as="geometry" />
        </mxCell>
        <mxCell id="6woVvPPupNbpwFlzKSAC-22" value="" style="endArrow=none;html=1;rounded=0;exitX=0;exitY=0;exitDx=0;exitDy=0;" edge="1" parent="1" source="6woVvPPupNbpwFlzKSAC-9">
          <mxGeometry width="50" height="50" relative="1" as="geometry">
            <mxPoint x="80" y="200" as="sourcePoint" />
            <mxPoint x="340" y="200" as="targetPoint" />
          </mxGeometry>
        </mxCell>
        <mxCell id="6woVvPPupNbpwFlzKSAC-27" value="SYmetric Multiprocesor" style="text;html=1;align=center;verticalAlign=middle;whiteSpace=wrap;rounded=0;" vertex="1" parent="1">
          <mxGeometry x="530" y="50" width="100" height="30" as="geometry" />
        </mxCell>
        <mxCell id="6woVvPPupNbpwFlzKSAC-28" value="" style="shape=image;verticalLabelPosition=bottom;labelBackgroundColor=default;verticalAlign=top;aspect=fixed;imageAspect=0;image=https://cdn-icons-png.flaticon.com/128/17339/17339048.png;" vertex="1" parent="1">
          <mxGeometry x="395" y="90" width="60" height="60" as="geometry" />
        </mxCell>
        <mxCell id="6woVvPPupNbpwFlzKSAC-29" value="" style="shape=image;verticalLabelPosition=bottom;labelBackgroundColor=default;verticalAlign=top;aspect=fixed;imageAspect=0;image=https://cdn-icons-png.flaticon.com/128/17339/17339048.png;" vertex="1" parent="1">
          <mxGeometry x="500" y="90" width="60" height="60" as="geometry" />
        </mxCell>
        <mxCell id="6woVvPPupNbpwFlzKSAC-30" value="" style="shape=image;verticalLabelPosition=bottom;labelBackgroundColor=default;verticalAlign=top;aspect=fixed;imageAspect=0;image=https://cdn-icons-png.flaticon.com/128/17339/17339048.png;" vertex="1" parent="1">
          <mxGeometry x="600" y="90" width="60" height="60" as="geometry" />
        </mxCell>
        <mxCell id="6woVvPPupNbpwFlzKSAC-31" value="" style="shape=image;verticalLabelPosition=bottom;labelBackgroundColor=default;verticalAlign=top;aspect=fixed;imageAspect=0;image=https://cdn-icons-png.flaticon.com/128/17339/17339048.png;" vertex="1" parent="1">
          <mxGeometry x="700" y="90" width="60" height="60" as="geometry" />
        </mxCell>
        <mxCell id="6woVvPPupNbpwFlzKSAC-32" value="" style="shape=image;verticalLabelPosition=bottom;labelBackgroundColor=default;verticalAlign=top;aspect=fixed;imageAspect=0;image=https://cdn-icons-png.flaticon.com/128/997/997606.png;" vertex="1" parent="1">
          <mxGeometry x="530" y="240" width="98" height="98" as="geometry" />
        </mxCell>
        <mxCell id="6woVvPPupNbpwFlzKSAC-35" value="" style="endArrow=classic;html=1;rounded=0;" edge="1" parent="1" target="6woVvPPupNbpwFlzKSAC-28">
          <mxGeometry width="50" height="50" relative="1" as="geometry">
            <mxPoint x="425" y="200" as="sourcePoint" />
            <mxPoint x="425" y="200" as="targetPoint" />
          </mxGeometry>
        </mxCell>
        <mxCell id="6woVvPPupNbpwFlzKSAC-36" value="" style="endArrow=classic;html=1;rounded=0;" edge="1" parent="1">
          <mxGeometry width="50" height="50" relative="1" as="geometry">
            <mxPoint x="529.5" y="200" as="sourcePoint" />
            <mxPoint x="529.5" y="150" as="targetPoint" />
          </mxGeometry>
        </mxCell>
        <mxCell id="6woVvPPupNbpwFlzKSAC-37" value="" style="endArrow=classic;html=1;rounded=0;" edge="1" parent="1">
          <mxGeometry width="50" height="50" relative="1" as="geometry">
            <mxPoint x="629.5" y="200" as="sourcePoint" />
            <mxPoint x="629.5" y="150" as="targetPoint" />
          </mxGeometry>
        </mxCell>
        <mxCell id="6woVvPPupNbpwFlzKSAC-38" value="" style="endArrow=classic;html=1;rounded=0;" edge="1" parent="1">
          <mxGeometry width="50" height="50" relative="1" as="geometry">
            <mxPoint x="729.5" y="200" as="sourcePoint" />
            <mxPoint x="729.5" y="150" as="targetPoint" />
          </mxGeometry>
        </mxCell>
        <mxCell id="6woVvPPupNbpwFlzKSAC-39" value="" style="endArrow=none;html=1;rounded=0;" edge="1" parent="1">
          <mxGeometry width="50" height="50" relative="1" as="geometry">
            <mxPoint x="430" y="200" as="sourcePoint" />
            <mxPoint x="730" y="200" as="targetPoint" />
          </mxGeometry>
        </mxCell>
        <mxCell id="6woVvPPupNbpwFlzKSAC-41" value="" style="endArrow=classic;html=1;rounded=0;" edge="1" parent="1" source="6woVvPPupNbpwFlzKSAC-32">
          <mxGeometry width="50" height="50" relative="1" as="geometry">
            <mxPoint x="580" y="230" as="sourcePoint" />
            <mxPoint x="580" y="200" as="targetPoint" />
          </mxGeometry>
        </mxCell>
        <mxCell id="6woVvPPupNbpwFlzKSAC-44" value="Master CPU" style="text;html=1;align=center;verticalAlign=middle;whiteSpace=wrap;rounded=0;" vertex="1" parent="1">
          <mxGeometry x="230" y="130" width="50" as="geometry" />
        </mxCell>
        <mxCell id="6woVvPPupNbpwFlzKSAC-47" value="Memory, I/O" style="text;html=1;align=center;verticalAlign=middle;whiteSpace=wrap;rounded=0;" vertex="1" parent="1">
          <mxGeometry x="130" y="310" width="50" height="20" as="geometry" />
        </mxCell>
        <mxCell id="6woVvPPupNbpwFlzKSAC-48" value="CPU 1" style="text;html=1;align=center;verticalAlign=middle;whiteSpace=wrap;rounded=0;" vertex="1" parent="1">
          <mxGeometry x="50" y="260" width="40" height="10" as="geometry" />
        </mxCell>
        <mxCell id="6woVvPPupNbpwFlzKSAC-50" value="CPU 3" style="text;html=1;align=center;verticalAlign=middle;whiteSpace=wrap;rounded=0;" vertex="1" parent="1">
          <mxGeometry x="290" y="260" width="40" height="10" as="geometry" />
        </mxCell>
        <mxCell id="6woVvPPupNbpwFlzKSAC-51" value="" style="edgeStyle=orthogonalEdgeStyle;rounded=0;orthogonalLoop=1;jettySize=auto;html=1;" edge="1" parent="1" source="6woVvPPupNbpwFlzKSAC-10" target="6woVvPPupNbpwFlzKSAC-49">
          <mxGeometry relative="1" as="geometry">
            <mxPoint x="190" y="260" as="sourcePoint" />
            <mxPoint x="190" y="300" as="targetPoint" />
          </mxGeometry>
        </mxCell>
        <mxCell id="6woVvPPupNbpwFlzKSAC-49" value="CPU 2" style="text;html=1;align=center;verticalAlign=middle;whiteSpace=wrap;rounded=0;" vertex="1" parent="1">
          <mxGeometry x="170" y="260" width="40" height="10" as="geometry" />
        </mxCell>
        <mxCell id="6woVvPPupNbpwFlzKSAC-52" value="CPU 1" style="text;html=1;align=center;verticalAlign=middle;whiteSpace=wrap;rounded=0;" vertex="1" parent="1">
          <mxGeometry x="380" y="150" width="40" height="10" as="geometry" />
        </mxCell>
        <mxCell id="6woVvPPupNbpwFlzKSAC-53" value="CPU 2" style="text;html=1;align=center;verticalAlign=middle;whiteSpace=wrap;rounded=0;" vertex="1" parent="1">
          <mxGeometry x="480" y="150" width="40" height="10" as="geometry" />
        </mxCell>
        <mxCell id="6woVvPPupNbpwFlzKSAC-54" value="CPU 3" style="text;html=1;align=center;verticalAlign=middle;whiteSpace=wrap;rounded=0;" vertex="1" parent="1">
          <mxGeometry x="580" y="150" width="40" height="10" as="geometry" />
        </mxCell>
        <mxCell id="6woVvPPupNbpwFlzKSAC-55" value="CPU 4" style="text;html=1;align=center;verticalAlign=middle;whiteSpace=wrap;rounded=0;" vertex="1" parent="1">
          <mxGeometry x="680" y="150" width="40" height="10" as="geometry" />
        </mxCell>
        <mxCell id="6woVvPPupNbpwFlzKSAC-56" value="Shared Memory I/O" style="text;html=1;align=center;verticalAlign=middle;whiteSpace=wrap;rounded=0;" vertex="1" parent="1">
          <mxGeometry x="537" y="250" width="91" height="10" as="geometry" />
        </mxCell>
      </root>
    </mxGraphModel>
  </diagram>
</mxfile>
